# This file uses centimeters as units for non-parametric coordinates.

mtllib R_01.mtl
g default
v 9.450297 66.379707 228.789841
v 19.368683 70.488029 228.789841
v 29.286966 66.379707 228.789841
v 33.395283 56.461422 228.789841
v 29.286966 46.543140 228.789841
v 19.368683 42.434818 228.789841
v 9.450297 46.543140 228.789841
v 5.341981 56.461422 228.789841
v 9.450297 66.379707 217.128052
v 19.368683 70.488029 217.128052
v 29.286966 66.379707 217.128052
v 33.395283 56.461422 217.128052
v 29.286966 46.543140 217.128052
v 19.368683 42.434818 217.128052
v 9.450297 46.543140 217.128052
v 5.341981 56.461422 217.128052
v 19.368683 56.461422 228.789841
v 19.368683 56.461422 217.128052
vt 0.122855 0.876517
vt 0.162099 0.882504
vt 0.163086 0.981547
vt 0.125226 0.975490
vt 0.200180 0.889153
vt 0.202062 0.988151
vt 0.237449 0.891437
vt 0.242029 0.990300
vt 0.274326 0.886909
vt 0.281819 0.985627
vt 0.311396 0.877113
vt 0.320273 0.975762
vt 0.005118 0.892395
vt 0.043242 0.881944
vt 0.051224 0.980638
vt 0.013995 0.991044
vt 0.082797 0.875827
vt 0.088081 0.974655
vt 0.206671 0.762970
vt 0.180541 0.828159
vt 0.114457 0.764503
vt 0.178611 0.698668
vt 0.113087 0.673216
vt 0.048777 0.701236
vt 0.023068 0.766022
vt 0.050723 0.829906
vt 0.115827 0.855762
vn -0.382684 0.923879 -0.000001
vn -0.382684 0.923879 -0.000001
vn -0.382684 0.923879 -0.000001
vn -0.382684 0.923879 -0.000001
vn 0.382684 0.923879 -0.000001
vn 0.382684 0.923879 -0.000001
vn 0.382684 0.923879 -0.000001
vn 0.382684 0.923879 -0.000001
vn 0.923879 0.382684 0.000000
vn 0.923879 0.382684 0.000000
vn 0.923879 0.382684 0.000000
vn 0.923879 0.382684 0.000000
vn 0.923879 -0.382684 0.000000
vn 0.923880 -0.382683 0.000000
vn 0.923879 -0.382684 0.000000
vn 0.923879 -0.382684 0.000000
vn 0.382684 -0.923879 0.000001
vn 0.382684 -0.923879 0.000001
vn 0.382684 -0.923879 0.000001
vn 0.382684 -0.923879 0.000001
vn -0.382685 -0.923879 0.000001
vn -0.382685 -0.923879 0.000001
vn -0.382685 -0.923879 0.000001
vn -0.382685 -0.923879 0.000001
vn -0.923879 -0.382684 -0.000000
vn -0.923879 -0.382684 -0.000000
vn -0.923879 -0.382684 -0.000000
vn -0.923879 -0.382684 -0.000000
vn -0.923879 0.382684 -0.000000
vn -0.923879 0.382684 -0.000000
vn -0.923879 0.382684 -0.000000
vn -0.923879 0.382684 -0.000000
vn -0.000000 -0.000001 1.000000
vn -0.000001 0.000000 1.000000
vn -0.000000 0.000000 1.000000
vn 0.000001 -0.000000 1.000000
vn -0.000000 -0.000001 1.000000
vn -0.000000 0.000000 1.000000
vn -0.000000 0.000000 1.000000
vn 0.000001 -0.000000 1.000000
vn -0.000000 0.000000 1.000000
vn -0.000000 0.000000 1.000000
vn -0.000000 0.000000 1.000000
vn -0.000000 0.000000 1.000000
vn -0.000000 0.000000 1.000000
vn -0.000000 0.000000 1.000000
vn -0.000000 0.000000 1.000000
vn -0.000000 0.000000 1.000000
vn -0.000000 0.000000 1.000000
vn -0.000000 0.000000 1.000000
vn -0.000000 0.000000 1.000000
vn -0.000000 0.000000 1.000000
vn -0.000000 0.000000 1.000000
vn -0.000001 0.000000 1.000000
vn -0.000000 0.000000 1.000000
vn -0.000000 0.000000 1.000000
vn 0.000000 0.000000 -1.000000
vn 0.000000 0.000000 -1.000000
vn 0.000000 0.000000 -1.000000
vn 0.000000 0.000000 -1.000000
vn 0.000000 0.000000 -1.000000
vn 0.000000 0.000000 -1.000000
vn 0.000000 0.000000 -1.000000
vn 0.000000 0.000000 -1.000000
vn 0.000000 0.000000 -1.000000
vn 0.000000 0.000000 -1.000000
vn 0.000001 0.000000 -1.000000
vn 0.000000 0.000000 -1.000000
vn 0.000001 0.000000 -1.000000
vn 0.000000 0.000001 -1.000000
vn 0.000000 0.000000 -1.000000
vn 0.000000 0.000001 -1.000000
vn -0.000001 0.000000 -1.000000
vn 0.000000 0.000000 -1.000000
vn -0.000001 0.000000 -1.000000
vn 0.000000 0.000000 -1.000000
vn 0.000000 0.000000 -1.000000
vn 0.000000 0.000000 -1.000000
vn 0.000000 0.000000 -1.000000
vn 0.000000 0.000000 -1.000000
s off
g RACER_01:pCylinder2
usemtl RACER_01:lambert2SG
f 1/1/1 2/2/2 10/3/3 9/4/4
f 2/2/5 3/5/6 11/6/7 10/3/8
f 3/5/9 4/7/10 12/8/11 11/6/12
f 4/7/13 5/9/14 13/10/15 12/8/16
f 5/9/17 6/11/18 14/12/19 13/10/20
f 6/13/21 7/14/22 15/15/23 14/16/24
f 7/14/25 8/17/26 16/18/27 15/15/28
f 8/17/29 1/1/30 9/4/31 16/18/32
f 2/19/33 1/20/34 17/21/35
f 3/22/36 2/19/37 17/21/38
f 4/23/39 3/22/40 17/21/41
f 5/24/42 4/23/43 17/21/44
f 6/25/45 5/24/46 17/21/47
f 7/26/48 6/25/49 17/21/50
f 8/27/51 7/26/52 17/21/53
f 1/20/54 8/27/55 17/21/56
f 9//57 10//58 18//59
f 10//60 11//61 18//62
f 11//63 12//64 18//65
f 12//66 13//67 18//68
f 13//69 14//70 18//71
f 14//72 15//73 18//74
f 15//75 16//76 18//77
f 16//78 9//79 18//80
g default
v -29.286966 66.379707 228.789841
v -19.368584 70.488029 228.789841
v -9.450297 66.379707 228.789841
v -5.341981 56.461422 228.789841
v -9.450297 46.543140 228.789841
v -19.368584 42.434818 228.789841
v -29.286966 46.543140 228.789841
v -33.395283 56.461422 228.789841
v -29.286966 66.379707 217.128052
v -19.368584 70.488029 217.128052
v -9.450297 66.379707 217.128052
v -5.341981 56.461422 217.128052
v -9.450297 46.543140 217.128052
v -19.368584 42.434818 217.128052
v -29.286966 46.543140 217.128052
v -33.395283 56.461422 217.128052
v -19.368584 56.461422 228.789841
v -19.368584 56.461422 217.128052
vt 0.122855 0.876517
vt 0.162099 0.882504
vt 0.163086 0.981547
vt 0.125226 0.975490
vt 0.200180 0.889153
vt 0.202062 0.988151
vt 0.237449 0.891437
vt 0.242029 0.990300
vt 0.274326 0.886909
vt 0.281819 0.985627
vt 0.311396 0.877114
vt 0.320273 0.975762
vt 0.005118 0.892395
vt 0.043242 0.881945
vt 0.051224 0.980638
vt 0.013995 0.991044
vt 0.082797 0.875827
vt 0.088081 0.974655
vt 0.206671 0.762971
vt 0.180541 0.828159
vt 0.114457 0.764503
vt 0.178611 0.698668
vt 0.113086 0.673216
vt 0.048777 0.701236
vt 0.023068 0.766022
vt 0.050723 0.829906
vt 0.115827 0.855762
vn -0.382683 0.923880 0.000000
vn -0.382683 0.923880 0.000000
vn -0.382683 0.923880 0.000000
vn -0.382683 0.923880 0.000000
vn 0.382685 0.923879 -0.000001
vn 0.382685 0.923879 -0.000001
vn 0.382685 0.923879 -0.000001
vn 0.382685 0.923879 -0.000001
vn 0.923879 0.382684 0.000000
vn 0.923879 0.382684 0.000000
vn 0.923879 0.382684 0.000000
vn 0.923879 0.382684 0.000000
vn 0.923879 -0.382684 0.000000
vn 0.923879 -0.382684 0.000000
vn 0.923879 -0.382684 0.000000
vn 0.923879 -0.382684 0.000000
vn 0.382685 -0.923879 0.000001
vn 0.382685 -0.923879 0.000001
vn 0.382685 -0.923879 0.000001
vn 0.382685 -0.923879 0.000001
vn -0.382685 -0.923879 0.000001
vn -0.382685 -0.923879 0.000001
vn -0.382685 -0.923879 0.000001
vn -0.382685 -0.923879 0.000001
vn -0.923880 -0.382683 -0.000000
vn -0.923880 -0.382683 -0.000000
vn -0.923880 -0.382683 -0.000000
vn -0.923879 -0.382684 -0.000000
vn -0.923879 0.382684 -0.000000
vn -0.923879 0.382684 -0.000000
vn -0.923880 0.382683 -0.000000
vn -0.923879 0.382684 -0.000000
vn -0.000000 -0.000001 1.000000
vn -0.000002 0.000000 1.000000
vn -0.000000 0.000000 1.000000
vn 0.000002 -0.000000 1.000000
vn -0.000000 -0.000001 1.000000
vn -0.000000 0.000000 1.000000
vn -0.000000 0.000000 1.000000
vn 0.000002 -0.000000 1.000000
vn -0.000000 0.000000 1.000000
vn -0.000000 0.000000 1.000000
vn -0.000000 0.000000 1.000000
vn -0.000000 0.000000 1.000000
vn -0.000000 0.000000 1.000000
vn -0.000000 0.000000 1.000000
vn -0.000000 0.000000 1.000000
vn -0.000000 0.000000 1.000000
vn -0.000000 0.000000 1.000000
vn -0.000000 0.000000 1.000000
vn -0.000000 0.000000 1.000000
vn -0.000000 0.000000 1.000000
vn -0.000000 0.000000 1.000000
vn -0.000002 0.000000 1.000000
vn -0.000000 0.000000 1.000000
vn -0.000000 0.000000 1.000000
vn 0.000000 0.000000 -1.000000
vn 0.000000 0.000000 -1.000000
vn 0.000000 0.000000 -1.000000
vn 0.000000 0.000000 -1.000000
vn 0.000000 0.000000 -1.000000
vn 0.000000 0.000000 -1.000000
vn 0.000000 0.000000 -1.000000
vn 0.000000 0.000000 -1.000000
vn 0.000000 0.000000 -1.000000
vn 0.000000 0.000000 -1.000000
vn 0.000000 0.000000 -1.000000
vn 0.000000 0.000000 -1.000000
vn 0.000000 0.000000 -1.000000
vn -0.000001 0.000001 -1.000000
vn 0.000000 0.000000 -1.000000
vn -0.000001 0.000001 -1.000000
vn -0.000001 0.000000 -1.000000
vn 0.000000 0.000000 -1.000000
vn -0.000001 0.000000 -1.000000
vn 0.000000 0.000000 -1.000000
vn 0.000000 0.000000 -1.000000
vn 0.000000 0.000000 -1.000000
vn 0.000000 0.000000 -1.000000
vn 0.000000 0.000000 -1.000000
s off
g RACER_01:pCylinder4
usemtl RACER_01:lambert2SG
f 19/28/81 20/29/82 28/30/83 27/31/84
f 20/29/85 21/32/86 29/33/87 28/30/88
f 21/32/89 22/34/90 30/35/91 29/33/92
f 22/34/93 23/36/94 31/37/95 30/35/96
f 23/36/97 24/38/98 32/39/99 31/37/100
f 24/40/101 25/41/102 33/42/103 32/43/104
f 25/41/105 26/44/106 34/45/107 33/42/108
f 26/44/109 19/28/110 27/31/111 34/45/112
f 20/46/113 19/47/114 35/48/115
f 21/49/116 20/46/117 35/48/118
f 22/50/119 21/49/120 35/48/121
f 23/51/122 22/50/123 35/48/124
f 24/52/125 23/51/126 35/48/127
f 25/53/128 24/52/129 35/48/130
f 26/54/131 25/53/132 35/48/133
f 19/47/134 26/54/135 35/48/136
f 27//137 28//138 36//139
f 28//140 29//141 36//142
f 29//143 30//144 36//145
f 30//146 31//147 36//148
f 31//149 32//150 36//151
f 32//152 33//153 36//154
f 33//155 34//156 36//157
f 34//158 27//159 36//160
g default
v 125.793480 24.225969 -119.508064
v -125.793480 24.225969 -119.508064
v 68.176300 107.383965 -119.508064
v -68.176300 107.383965 -119.508064
v 51.135662 89.116875 177.441360
v -51.135662 89.116875 177.441360
v 51.135662 24.225969 177.441360
v -51.135662 24.225969 177.441360
v -97.538368 121.764336 23.705181
v 97.538368 121.764336 23.705181
v 125.793480 24.225969 23.705181
v -125.793480 24.225969 23.705181
v -0.000000 89.116875 177.441360
v -0.000000 24.225969 177.441360
v 0.000000 24.225969 23.705181
v 0.000000 24.225969 -119.508064
v 0.000000 107.383965 -119.508064
v 0.000000 121.764336 23.705181
v 45.569340 24.225969 -262.061554
v 0.000000 24.225969 -262.061554
v 0.000000 51.319202 -262.061554
v 28.342211 51.319202 -262.061554
v -45.569340 24.225969 -262.061554
v -28.342211 51.319202 -262.061554
v 83.014313 31.467705 224.967606
v 158.345154 31.467705 123.094917
v 158.345154 81.070930 123.094917
v 83.014313 64.468056 224.967606
v -158.345154 31.467705 123.094917
v -158.345154 81.070839 123.094917
v -83.014313 31.467705 224.967606
v -83.014313 64.467957 224.967606
vt 0.991752 0.093733
vt 0.991460 0.194730
vt 0.931412 0.194551
vt 0.931577 0.131719
vt 0.865888 0.807019
vt 0.772569 0.807347
vt 0.771886 0.610333
vt 0.905391 0.609870
vt 0.328953 0.146505
vt 0.329009 0.195458
vt 0.267067 0.195653
vt 0.266900 0.146839
vt 0.534888 0.354820
vt 0.532950 0.195715
vt 0.714828 0.196180
vt 0.716838 0.358457
vt 0.412266 0.996304
vt 0.404542 0.737640
vt 0.582362 0.733642
vt 0.394367 0.732830
vt 0.394815 0.987512
vt 0.220241 0.735046
vt 0.773781 0.415704
vt 0.840778 0.415475
vt 0.372779 0.397738
vt 0.388169 0.548270
vt 0.297925 0.547350
vt 0.317213 0.396901
vt 0.346214 0.258577
vt 0.345456 0.195236
vt 0.495592 0.545881
vt 0.403466 0.549732
vt 0.417395 0.394309
vt 0.473808 0.391591
vt 0.329066 0.244235
vt 0.267233 0.244294
vt 0.344698 0.131904
vt 0.531013 0.036668
vt 0.712820 0.033963
vt 0.991169 0.295638
vt 0.931248 0.257348
vt 0.679247 0.807675
vt 0.638372 0.610796
vt 0.706783 0.415933
vt 0.903215 0.196662
vt 0.903970 0.256630
vt 0.812813 0.995449
vt 0.775468 0.995581
vt 0.936699 0.805736
vt 0.835443 0.990569
vt 0.902459 0.136702
vt 0.617044 0.806858
vt 0.738122 0.995714
vt 0.718196 0.990986
vt 0.415632 0.390738
vt 0.293452 0.295676
vt 0.881057 0.363981
vt 0.981141 0.487257
vt 0.272099 0.113238
vt 0.305093 0.113010
vt 0.291035 0.092697
vt 0.410905 -0.001708
vt 0.305427 0.278641
vt 0.272632 0.278621
vt 0.567167 0.488679
vt 0.669079 0.364703
vn 0.000000 0.000000 -1.000000
vn 0.000000 0.000000 -1.000000
vn 0.000000 0.000000 -1.000000
vn 0.000000 0.000000 -1.000000
vn 0.000000 0.994996 -0.099910
vn 0.000000 0.994997 -0.099910
vn -0.000000 0.998597 0.052959
vn -0.000000 0.998851 0.047923
vn -0.000000 0.000000 1.000000
vn -0.000000 0.000000 1.000000
vn -0.000000 0.000000 1.000000
vn -0.000000 0.000000 1.000000
vn 0.000000 -1.000000 0.000000
vn 0.000000 -1.000000 0.000000
vn 0.000000 -1.000000 0.000000
vn 0.000000 -1.000000 0.000000
vn -0.877608 0.458705 -0.139264
vn -0.960511 0.278243 -0.000000
vn -0.914202 0.395385 -0.088918
vn 0.960511 0.278243 0.000000
vn 0.877608 0.458705 -0.139264
vn 0.914202 0.395385 -0.088918
vn -0.000000 0.998851 0.047923
vn -0.000000 0.998597 0.052959
vn -0.000000 0.978187 0.207728
vn -0.000000 0.978187 0.207728
vn 0.804049 0.000000 0.594563
vn 0.804049 0.000000 0.594563
vn 0.804049 0.000000 0.594563
vn 0.804049 0.000000 0.594563
vn 0.000000 -1.000000 0.000000
vn 0.000000 -1.000000 0.000000
vn 0.000000 -1.000000 0.000000
vn 0.000000 -1.000000 0.000000
vn -0.804049 0.000000 0.594563
vn -0.804049 0.000000 0.594563
vn -0.804049 0.000000 0.594563
vn -0.804049 0.000000 0.594563
vn -0.000000 0.000000 1.000000
vn -0.000000 0.000000 1.000000
vn -0.000000 0.000000 1.000000
vn -0.000000 0.000000 1.000000
vn 0.000000 -1.000000 0.000000
vn 0.000000 -1.000000 0.000000
vn 0.000000 -1.000000 0.000000
vn 0.000000 -1.000000 0.000000
vn 0.000000 -1.000000 0.000000
vn 0.000000 -1.000000 0.000000
vn 0.000000 -1.000000 0.000000
vn 0.000000 -1.000000 0.000000
vn 0.000000 0.000000 -1.000000
vn 0.000000 0.000000 -1.000000
vn 0.000000 0.000000 -1.000000
vn 0.000000 0.000000 -1.000000
vn -0.000000 0.998597 0.052959
vn 0.000000 0.994997 -0.099910
vn 0.000000 0.994996 -0.099910
vn -0.000000 0.998851 0.047923
vn -0.000000 0.978187 0.207728
vn -0.000000 0.998597 0.052959
vn -0.000000 0.998851 0.047923
vn -0.000000 0.978187 0.207728
vn 0.000000 -1.000000 0.000000
vn 0.000000 -1.000000 0.000000
vn 0.000000 -1.000000 0.000000
vn 0.000000 -1.000000 0.000000
vn 0.000000 0.930615 -0.366001
vn 0.000000 0.930615 -0.366001
vn 0.000000 0.930615 -0.366001
vn 0.000000 0.930615 -0.366001
vn 0.751984 0.510485 -0.417044
vn 0.751984 0.510485 -0.417044
vn 0.751984 0.510485 -0.417044
vn 0.751984 0.510485 -0.417044
vn 0.000000 -1.000000 0.000000
vn 0.000000 -1.000000 0.000000
vn 0.000000 -1.000000 0.000000
vn 0.000000 -1.000000 0.000000
vn -0.751984 0.510485 -0.417044
vn -0.751984 0.510485 -0.417044
vn -0.751984 0.510485 -0.417044
vn -0.751984 0.510485 -0.417044
vn 0.000000 0.930615 -0.366001
vn 0.000000 0.930615 -0.366001
vn 0.000000 0.930615 -0.366001
vn 0.000000 0.930615 -0.366001
vn 0.095554 -0.993844 0.056070
vn 0.095554 -0.993844 0.056070
vn 0.095554 -0.993844 0.056070
vn 0.095554 -0.993844 0.056070
vn 0.884525 0.216218 -0.413359
vn 0.868038 0.251455 -0.428113
vn 0.906996 0.161012 -0.389144
vn 0.213017 0.935555 0.281710
vn 0.213017 0.935555 0.281710
vn 0.213017 0.935555 0.281710
vn 0.213017 0.935555 0.281710
vn -0.830478 0.000000 0.557051
vn -0.830478 0.000000 0.557051
vn -0.830478 0.000000 0.557051
vn -0.830478 0.000000 0.557051
vn -0.868038 0.251455 -0.428113
vn -0.884525 0.216218 -0.413359
vn -0.906996 0.161012 -0.389144
vn -0.095554 -0.993844 0.056070
vn -0.095554 -0.993844 0.056070
vn -0.095554 -0.993844 0.056070
vn -0.095554 -0.993844 0.056070
vn 0.830478 0.000000 0.557051
vn 0.830478 0.000000 0.557051
vn 0.830478 0.000000 0.557051
vn 0.830478 0.000000 0.557051
vn -0.213017 0.935555 0.281711
vn -0.213017 0.935555 0.281711
vn -0.213017 0.935555 0.281711
vn -0.213017 0.935555 0.281711
vn 0.914202 0.395385 -0.088918
vn 0.877608 0.458705 -0.139264
vn 0.801808 0.555543 -0.220173
vn -0.877608 0.458705 -0.139264
vn -0.914202 0.395385 -0.088918
vn -0.801808 0.555543 -0.220173
vn -0.906996 0.161012 -0.389144
vn -0.884525 0.216218 -0.413359
vn -0.950329 0.000000 -0.311247
vn 0.884525 0.216218 -0.413359
vn 0.906996 0.161012 -0.389144
vn 0.950329 0.000000 -0.311247
s off
g RACER_01:pCube1
usemtl RACER_01:lambert2SG
f 55/55/161 56/56/162 57/57/163 58/58/164
f 39/59/165 53/60/166 54/61/167 46/62/168
f 41/63/169 49/64/170 50/65/171 43/66/172
f 47/67/173 51/68/174 52/69/175 37/70/176
f 38/71/177 48/72/178 45/73/179
f 47/74/180 37/75/181 46/76/182
f 46/62/183 54/61/184 49/77/185 41/78/186
f 61/79/187 62/80/188 63/81/189 64/82/190
f 43/83/191 50/84/192 51/68/193 47/67/194
f 66/85/195 65/86/196 67/87/197 68/88/198
f 49/64/199 42/89/200 44/90/201 50/65/202
f 51/68/203 50/84/204 44/91/205 48/92/206
f 52/69/207 51/68/208 48/92/209 38/93/210
f 57/57/211 56/56/212 59/94/213 60/95/214
f 54/61/215 53/60/216 40/96/217 45/97/218
f 49/77/219 54/61/220 45/97/221 42/98/222
f 37/70/223 52/69/224 56/99/225 55/100/226
f 53/60/227 39/59/228 58/101/229 57/102/230
f 39/59/231 37/103/232 55/104/233 58/101/234
f 52/69/235 38/93/236 59/105/237 56/99/238
f 38/106/239 40/96/240 60/107/241 59/108/242
f 40/96/243 53/60/244 57/102/245 60/107/246
f 43/83/247 47/67/248 62/109/249 61/110/250
f 47/74/251 46/76/252 63/81/253
f 46/62/254 41/78/255 64/111/256 63/112/257
f 41/63/258 43/66/259 61/113/260 64/114/261
f 45/73/262 48/72/263 66/85/264
f 48/92/265 44/91/266 67/115/267 65/116/268
f 44/90/269 42/89/270 68/117/271 67/118/272
f 42/98/273 45/97/274 66/119/275 68/120/276
f 46/62/277 37/103/278 39/59/279
f 38/106/280 45/97/281 40/96/282
f 66/85/283 48/72/284 65/86/285
f 47/74/286 63/81/287 62/80/288
g default
v 51.135662 37.729473 177.441360
v -51.135662 37.729473 177.441360
v 51.135662 83.080322 177.441360
v -51.135662 83.080322 177.441360
v 51.135662 75.613373 236.273758
v -51.135662 75.613373 236.273758
v 51.135662 37.729473 236.273758
v -51.135662 37.729473 236.273758
v 33.395283 69.041824 217.128052
v -33.395283 69.041824 217.128052
v -33.395283 44.301022 217.128052
v 33.395283 44.301022 217.128052
vt 0.011311 0.574008
vt 0.011311 0.433879
vt 0.084866 0.433879
vt 0.084866 0.574008
vt 0.221738 0.458512
vt 0.224532 0.540646
vt 0.196189 0.540315
vt 0.194404 0.458117
vt 0.172379 0.430379
vt 0.172094 0.570508
vt 0.098539 0.570359
vt 0.098824 0.430230
vt 0.098841 0.571067
vt 0.172396 0.571309
vt 0.172226 0.622778
vt 0.098638 0.632681
vt 0.093012 0.626268
vt 0.020181 0.636568
vt 0.011554 0.575560
vt 0.085805 0.575305
vt 0.244633 0.427804
vt 0.246913 0.569433
vt 0.177199 0.571123
vt 0.174892 0.429217
vn 0.000000 0.992042 0.125909
vn 0.000000 0.992042 0.125909
vn 0.000000 0.992042 0.125909
vn 0.000000 0.992042 0.125909
vn -0.000000 0.000000 1.000000
vn -0.000000 0.000000 1.000000
vn -0.000000 0.000000 1.000000
vn -0.000000 0.000000 1.000000
vn 0.000000 -1.000000 0.000000
vn 0.000000 -1.000000 0.000000
vn 0.000000 -1.000000 0.000000
vn 0.000000 -1.000000 0.000000
vn -1.000000 0.000000 -0.000000
vn -1.000000 0.000000 -0.000000
vn -1.000000 0.000000 -0.000000
vn -1.000000 0.000000 -0.000000
vn 1.000000 0.000000 0.000000
vn 1.000000 0.000000 0.000000
vn 1.000000 0.000000 0.000000
vn 1.000000 0.000000 0.000000
vn -0.000000 -0.945836 0.324645
vn -0.000000 -0.945836 0.324645
vn -0.000000 -0.945836 0.324645
vn -0.000000 -0.945836 0.324645
vn 0.733514 0.000000 0.679674
vn 0.733514 0.000000 0.679674
vn 0.733514 0.000000 0.679674
vn 0.733514 0.000000 0.679674
vn -0.000000 0.945836 0.324645
vn -0.000000 0.945836 0.324645
vn -0.000000 0.945836 0.324645
vn -0.000000 0.945836 0.324645
vn -0.733514 0.000000 0.679674
vn -0.733514 0.000000 0.679674
vn -0.733514 0.000000 0.679674
vn -0.733514 0.000000 0.679674
s off
g RACER_01:pCube2
usemtl RACER_01:lambert2SG
f 71/121/289 72/122/290 74/123/291 73/124/292
f 77/125/293 78/126/294 79/127/295 80/128/296
f 75/129/297 76/130/298 70/131/299 69/132/300
f 70/133/301 76/134/302 74/135/303 72/136/304
f 75/137/305 69/138/306 71/139/307 73/140/308
f 73/141/309 74/142/310 78/126/311 77/125/312
f 74/142/313 76/143/314 79/127/315 78/126/316
f 76/143/317 75/144/318 80/128/319 79/127/320
f 75/144/321 73/141/322 77/125/323 80/128/324
g default
v 10.358087 51.319202 -262.061554
v 5.789682 154.662460 71.428169
v 10.358087 121.764336 23.705082
v 5.789682 128.749344 -119.508064
v 10.358087 107.383965 -119.508064
v 5.789682 113.772530 144.710403
v 10.358087 89.116875 177.441452
v -5.789682 128.749344 -119.508064
v -10.358087 107.383965 -119.508064
v -10.358087 121.764336 23.705082
v -5.789682 154.662460 71.428169
v -10.358087 51.319202 -262.061554
v -10.358087 89.116875 177.441452
v -5.789682 113.772530 144.710403
vt 0.237789 0.296591
vt 0.219322 0.297436
vt 0.227765 0.174062
vt 0.254745 0.132461
vt 0.175132 0.421125
vt 0.217835 0.071405
vt 0.195734 0.043822
vt 0.099016 0.294803
vt 0.077703 0.134724
vt 0.105221 0.174459
vt 0.117098 0.295019
vt 0.164227 0.415631
vt 0.111984 0.074144
vt 0.038338 0.342179
vt 0.035613 0.155943
vt 0.046783 0.155793
vt 0.049580 0.342029
vt 0.027643 0.026200
vt 0.046499 0.025947
vt 0.032824 0.426752
vt 0.037518 0.402801
vt 0.048265 0.402658
vt 0.051572 0.426502
vt 0.132696 0.046612
vn -0.982475 0.185053 -0.022315
vn -0.982475 0.185053 -0.022315
vn -0.982475 0.185053 -0.022315
vn -0.982475 0.185053 -0.022315
vn -0.981271 0.189634 -0.033870
vn -0.974605 0.208395 -0.081959
vn -0.980311 0.192905 -0.042167
vn -0.975710 0.213071 0.050909
vn -0.984727 0.173584 -0.013475
vn -0.966924 0.249499 0.052984
vn 0.981271 0.189634 -0.033870
vn 0.993683 0.109881 0.022812
vn 0.984727 0.173584 -0.013475
vn 0.980311 0.192905 -0.042167
vn 0.981271 0.189634 -0.033870
vn 0.980311 0.192905 -0.042167
vn 0.974605 0.208395 -0.081959
vn 0.993683 0.109881 0.022812
vn 0.975709 0.213072 0.050909
vn 0.984727 0.173584 -0.013475
vn -0.000000 -0.994996 0.099910
vn -0.000000 -0.994996 0.099910
vn -0.000000 -0.994996 0.099910
vn -0.000000 -0.994996 0.099910
vn 0.000000 0.990916 -0.134483
vn 0.000000 0.990916 -0.134483
vn 0.000000 0.990916 -0.134483
vn 0.000000 0.990916 -0.134483
vn 0.000000 0.878740 -0.477301
vn 0.000000 0.878740 -0.477301
vn 0.000000 0.878740 -0.477301
vn 0.000000 0.878740 -0.477301
vn -0.000000 -0.930615 0.366001
vn -0.000000 -0.930615 0.366001
vn -0.000000 -0.930615 0.366001
vn -0.000000 -0.930615 0.366001
vn 0.000000 -0.978187 -0.207728
vn 0.000000 -0.978187 -0.207728
vn 0.000000 -0.978187 -0.207728
vn 0.000000 -0.978187 -0.207728
vn -0.000000 0.798740 0.601677
vn -0.000000 0.798740 0.601677
vn -0.000000 0.798740 0.601677
vn -0.000000 0.798740 0.601677
vn -0.000000 0.873258 0.487259
vn -0.000000 0.873258 0.487259
vn -0.000000 0.873258 0.487259
vn -0.000000 0.873258 0.487259
vn 0.984727 0.173584 -0.013475
vn 0.975709 0.213072 0.050909
vn 0.966924 0.249499 0.052984
vn -0.993683 0.109880 0.022812
vn -0.984727 0.173584 -0.013475
vn -0.975710 0.213071 0.050909
s off
g RACER_01:pPlane1
usemtl RACER_01:lambert2SG
f 88/145/325 89/146/326 90/147/327 91/148/328
f 88/145/329 92/149/330 89/146/331
f 94/150/332 90/147/333 93/151/334
f 84/152/335 82/153/336 83/154/337 85/155/338
f 84/152/339 85/155/340 81/156/341
f 82/153/342 86/157/343 83/154/344
f 85//345 83//346 90//347 89//348
f 82/158/349 84/159/350 88/160/351 91/161/352
f 84/159/353 81/162/354 92/163/355 88/160/356
f 81//357 85//358 89//359 92//360
f 83//361 87//362 93//363 90//364
f 87/164/365 86/165/366 94/166/367 93/167/368
f 86/165/369 82/158/370 91/161/371 94/166/372
f 83/154/373 86/157/374 87/168/375
f 91/148/376 90/147/377 94/150/378
